# xmcd
#
# Track frame offsets:
#	150
#	15353
#	30687
#	46275
#	58095
#	73979
#	88999
#	103141
#	118903
#	131682
#	142653
#
# Disc length: 2097 seconds
#
# Revision: 0
# Processed by: cddbd v1.5.1PL0 Copyright (c) Steve Scherf et al.
# Submitted via: dBpowerAMP V4.0
#
DISCID=9d082f0b
DTITLE=Gord Bamford - Life Is Good
DYEAR=2004
DGENRE=Country
TTITLE0=Heroes
TTITLE1=My Heart's A Genius
TTITLE2=Politically Incorrect
TTITLE3=Joe's Place
TTITLE4=All About Her
TTITLE5=I Would For You
TTITLE6=Stubborn Blood
TTITLE7=We're All Cowboys
TTITLE8=Life Is Good
TTITLE9=The Watering Hole
TTITLE10=Kendra's Song
EXTD=This is Gord's second album following "God's Green Earth."  See his website www.gordbamford for more details.  --David Edwards
EXTT0=
EXTT1=
EXTT2=
EXTT3=
EXTT4=
EXTT5=
EXTT6=
EXTT7=
EXTT8=
EXTT9=
EXTT10=
PLAYORDER=
